<?xml version="1.0" standalone="no"?>
<!DOCTYPE svg PUBLIC "-//W3C//DTD SVG 20010904//EN"
 "http://www.w3.org/TR/2001/REC-SVG-20010904/DTD/svg10.dtd">
<svg version="1.0" xmlns="http://www.w3.org/2000/svg"
 width="260.000000pt" height="260.000000pt" viewBox="0 0 260.000000 260.000000"
 preserveAspectRatio="xMidYMid meet">
<metadata>
Created by potrace 1.11, written by Peter Selinger 2001-2013
</metadata>
<g transform="translate(0.000000,260.000000) scale(0.100000,-0.100000)"
fill="#000000" stroke="none">
<path d="M1085 2584 c-415 -68 -768 -328 -950 -699 -98 -200 -137 -379 -131
-600 5 -147 28 -276 75 -403 101 -276 302 -519 551 -664 74 -42 86 -49 163
-83 30 -13 114 -42 147 -50 78 -20 166 -37 198 -38 23 -1 42 -4 42 -7 0 -3 39
-5 88 -4 48 1 87 2 87 3 0 1 25 4 55 6 274 22 568 163 775 371 195 194 336
473 362 714 5 49 10 84 14 88 7 8 4 170 -4 186 -7 14 -6 16 4 11 8 -6 10 -4 4
5 -4 6 -9 29 -12 49 -2 20 -11 70 -20 111 -106 504 -502 893 -1011 997 -100
20 -334 24 -437 7z m297 -188 c554 -50 982 -519 981 -1076 0 -67 -11 -199 -18
-210 -2 -4 -7 -21 -10 -40 -16 -92 -82 -243 -150 -345 -230 -345 -620 -528
-1030 -482 -201 23 -395 105 -555 236 -437 356 -529 975 -216 1445 146 218
397 393 641 447 28 6 59 13 70 15 11 3 52 7 90 10 39 4 71 7 73 9 1 1 15 1 30
0 15 -2 57 -6 94 -9z"/>
<path d="M1119 2269 c-402 -68 -708 -372 -789 -782 -14 -70 -17 -220 -7 -297
43 -315 244 -594 532 -737 133 -66 255 -95 413 -98 527 -9 964 410 977 937 8
341 -156 652 -438 836 -210 136 -439 183 -688 141z m-51 -478 c82 -42 123
-118 110 -204 -16 -115 -111 -181 -232 -163 -34 5 -57 18 -91 49 -52 49 -72
106 -61 178 18 119 166 195 274 140z m583 5 c129 -55 162 -222 64 -321 -121
-121 -335 -32 -335 140 0 77 64 167 132 187 41 11 105 8 139 -6z m-586 -595
c71 -32 116 -101 117 -177 0 -146 -156 -241 -285 -173 -69 36 -107 96 -107
171 0 142 146 238 275 179z m597 -3 c144 -71 147 -278 5 -347 -125 -61 -268
14 -284 147 -18 157 139 269 279 200z"/>
</g>
</svg>
